Plode-Regular.ufo
<glyph name="quotesingle" format="1">
  <advance width="601"/>
  <unicode hex="0027"/>
  <outline>
    <contour>
      <point x="338" y="463" type="line" name="hr00"/>
      <point x="338" y="740" type="line"/>
      <point x="262" y="740" type="line"/>
      <point x="262" y="463" type="line"/>
    </contour>
  </outline>
</glyph>
<glyph name="_less_asciitilde_greater" format="1">
  <advance width="1800"/>
  <outline>
    <contour>
      <point x="1483" y="8" type="line"/>
      <point x="1781" y="306" type="line" name="hr00"/>
      <point x="1483" y="604" type="line"/>
      <point x="1435" y="556" type="line"/>
      <point x="1612" y="379" type="line"/>
      <point x="1698" y="306" type="line"/>
      <point x="1612" y="233" type="line"/>
      <point x="1435" y="56" type="line"/>
    </contour>
    <contour>
      <point x="317" y="8" type="line"/>
      <point x="365" y="56" type="line"/>
      <point x="188" y="233" type="line"/>
      <point x="102" y="306" type="line"/>
      <point x="188" y="379" type="line"/>
      <point x="365" y="556" type="line"/>
      <point x="317" y="604" type="line"/>
      <point x="19" y="306" type="line" name="hr00"/>
    </contour>
    <contour>
      <point x="527" y="237" type="line"/>
      <point x="544" y="277"/>
      <point x="566" y="306"/>
      <point x="605" y="306" type="curve" smooth="yes"/>
      <point x="638" y="306"/>
      <point x="674" y="286"/>
      <point x="709" y="269" type="curve" smooth="yes"/>
      <point x="744" y="252"/>
      <point x="781" y="237"/>
      <point x="822" y="237" type="curve" smooth="yes" name="hr00"/>
      <point x="867" y="237"/>
      <point x="902" y="255"/>
      <point x="928" y="284" type="curve" smooth="yes"/>
      <point x="941" y="299"/>
      <point x="957" y="306"/>
      <point x="978" y="306" type="curve" smooth="yes"/>
      <point x="1011" y="306"/>
      <point x="1047" y="286"/>
      <point x="1082" y="269" type="curve" smooth="yes"/>
      <point x="1117" y="252"/>
      <point x="1154" y="237"/>
      <point x="1195" y="237" type="curve" smooth="yes" name="hr00"/>
      <point x="1269" y="237"/>
      <point x="1317" y="285"/>
      <point x="1335" y="348" type="curve"/>
      <point x="1274" y="373" type="line"/>
      <point x="1257" y="333"/>
      <point x="1235" y="304"/>
      <point x="1196" y="304" type="curve" smooth="yes"/>
      <point x="1163" y="304"/>
      <point x="1127" y="324"/>
      <point x="1092" y="341" type="curve" smooth="yes"/>
      <point x="1057" y="358"/>
      <point x="1020" y="373"/>
      <point x="979" y="373" type="curve" smooth="yes"/>
      <point x="934" y="373"/>
      <point x="898" y="355"/>
      <point x="873" y="326" type="curve" smooth="yes"/>
      <point x="860" y="311"/>
      <point x="844" y="304"/>
      <point x="823" y="304" type="curve" smooth="yes"/>
      <point x="790" y="304"/>
      <point x="754" y="324"/>
      <point x="719" y="341" type="curve" smooth="yes"/>
      <point x="684" y="358"/>
      <point x="647" y="373"/>
      <point x="606" y="373" type="curve" smooth="yes"/>
      <point x="532" y="373"/>
      <point x="484" y="325"/>
      <point x="466" y="262" type="curve"/>
    </contour>
  </outline>
</glyph>
<glyph name="ampersand_ampersand.liga" format="1">
  <advance width="1200"/>
  <outline>
    <contour>
      <point x="357" y="-12" type="curve" smooth="yes"/>
      <point x="447" y="-12"/>
      <point x="511" y="32"/>
      <point x="525" y="103" type="curve" smooth="yes"/>
      <point x="531" y="133"/>
      <point x="537" y="164"/>
      <point x="542" y="194" type="curve"/>
      <point x="469" y="284" type="line"/>
      <point x="439" y="321"/>
      <point x="409" y="358"/>
      <point x="379" y="395" type="curve" smooth="yes"/>
      <point x="327" y="459"/>
      <point x="308" y="494"/>
      <point x="308" y="536" type="curve" smooth="yes"/>
      <point x="308" y="544" type="line" smooth="yes"/>
      <point x="308" y="601"/>
      <point x="346" y="642"/>
      <point x="406" y="642" type="curve" smooth="yes"/>
      <point x="458" y="642"/>
      <point x="493" y="611"/>
      <point x="510" y="570" type="curve"/>
      <point x="576" y="604" type="line"/>
      <point x="557" y="655"/>
      <point x="499" y="710"/>
      <point x="410" y="710" type="curve" smooth="yes"/>
      <point x="311" y="710"/>
      <point x="229" y="642"/>
      <point x="229" y="541" type="curve" smooth="yes"/>
      <point x="229" y="482"/>
      <point x="257" y="432"/>
      <point x="294" y="384" type="curve"/>
      <point x="194" y="333"/>
      <point x="165" y="251"/>
      <point x="165" y="181" type="curve" smooth="yes" name="hr02"/>
      <point x="165" y="74"/>
      <point x="235" y="-12"/>
    </contour>
    <contour>
      <point x="378" y="59" type="curve" smooth="yes"/>
      <point x="301" y="59"/>
      <point x="248" y="105"/>
      <point x="248" y="177" type="curve" smooth="yes"/>
      <point x="248" y="192" type="line" smooth="yes"/>
      <point x="248" y="249"/>
      <point x="271" y="299"/>
      <point x="332" y="337" type="curve"/>
      <point x="506" y="127" type="line"/>
      <point x="481" y="84"/>
      <point x="435" y="59"/>
    </contour>
    <contour>
      <point x="511" y="381" type="line"/>
      <point x="511" y="314" type="line"/>
      <point x="652" y="314" type="line"/>
      <point x="652" y="381" type="line"/>
    </contour>
    <component base="ampersand" xOffset="503"/>
  </outline>
</glyph>
<glyph name="bar_bar.liga" format="1">
  <advance width="1200"/>
  <outline>
    <contour>
      <point x="470" y="-218" type="line" name="hr00"/>
      <point x="470" y="840" type="line"/>
      <point x="400" y="840" type="line"/>
      <point x="400" y="-218" type="line"/>
    </contour>
    <contour>
      <point x="800" y="-218" type="line" name="hr00"/>
      <point x="800" y="840" type="line"/>
      <point x="730" y="840" type="line"/>
      <point x="730" y="-218" type="line"/>
    </contour>
  </outline>
</glyph>
<glyph name="colon_equal.liga" format="1">
  <advance width="600"/>
  <outline>
    <contour>
      <point x="461" y="372" type="line" name="hr00"/>
      <point x="461" y="440" type="line"/>
      <point x="-162" y="440" type="line"/>
      <point x="-162" y="372" type="line"/>
    </contour>
    <contour>
      <point x="461" y="172" type="line"/>
      <point x="461" y="240" type="line"/>
      <point x="-162" y="240" type="line"/>
      <point x="-162" y="172" type="line"/>
    </contour>
    <contour>
      <point x="-377" y="98" type="curve" smooth="yes" name="hr00"/>
      <point x="-323" y="98"/>
      <point x="-303" y="124"/>
      <point x="-303" y="158" type="curve" smooth="yes"/>
      <point x="-303" y="176" type="line" smooth="yes"/>
      <point x="-303" y="210"/>
      <point x="-323" y="236"/>
      <point x="-377" y="236" type="curve" smooth="yes"/>
      <point x="-431" y="236"/>
      <point x="-451" y="210"/>
      <point x="-451" y="176" type="curve" smooth="yes"/>
      <point x="-451" y="158" type="line" smooth="yes"/>
      <point x="-451" y="124"/>
      <point x="-431" y="98"/>
    </contour>
    <contour>
      <point x="-377" y="376" type="curve" smooth="yes" name="hr00"/>
      <point x="-323" y="376"/>
      <point x="-303" y="402"/>
      <point x="-303" y="436" type="curve" smooth="yes"/>
      <point x="-303" y="454" type="line" smooth="yes"/>
      <point x="-303" y="488"/>
      <point x="-323" y="514"/>
      <point x="-377" y="514" type="curve" smooth="yes"/>
      <point x="-431" y="514"/>
      <point x="-451" y="488"/>
      <point x="-451" y="454" type="curve" smooth="yes"/>
      <point x="-451" y="436" type="line" smooth="yes"/>
      <point x="-451" y="402"/>
      <point x="-431" y="376"/>
    </contour>
  </outline>
</glyph>
<glyph name="equal_colon_equal.liga" format="1">
  <advance width="600"/>
  <outline>
    <contour>
      <point x="-515" y="372" type="line" name="hr00"/>
      <point x="-515" y="440" type="line"/>
      <point x="-1138" y="440" type="line"/>
      <point x="-1138" y="372" type="line"/>
    </contour>
    <contour>
      <point x="-515" y="172" type="line"/>
      <point x="-515" y="240" type="line"/>
      <point x="-1138" y="240" type="line"/>
      <point x="-1138" y="172" type="line"/>
    </contour>
    <contour>
      <point x="538" y="372" type="line" name="hr00"/>
      <point x="538" y="440" type="line"/>
      <point x="-85" y="440" type="line"/>
      <point x="-85" y="372" type="line"/>
    </contour>
    <contour>
      <point x="538" y="172" type="line"/>
      <point x="538" y="240" type="line"/>
      <point x="-85" y="240" type="line"/>
      <point x="-85" y="172" type="line"/>
    </contour>
    <contour>
      <point x="-300" y="98" type="curve" smooth="yes" name="hr00"/>
      <point x="-246" y="98"/>
      <point x="-226" y="124"/>
      <point x="-226" y="158" type="curve" smooth="yes"/>
      <point x="-226" y="176" type="line" smooth="yes"/>
      <point x="-226" y="210"/>
      <point x="-246" y="236"/>
      <point x="-300" y="236" type="curve" smooth="yes"/>
      <point x="-354" y="236"/>
      <point x="-374" y="210"/>
      <point x="-374" y="176" type="curve" smooth="yes"/>
      <point x="-374" y="158" type="line" smooth="yes"/>
      <point x="-374" y="124"/>
      <point x="-354" y="98"/>
    </contour>
    <contour>
      <point x="-300" y="376" type="curve" smooth="yes" name="hr00"/>
      <point x="-246" y="376"/>
      <point x="-226" y="402"/>
      <point x="-226" y="436" type="curve" smooth="yes"/>
      <point x="-226" y="454" type="line" smooth="yes"/>
      <point x="-226" y="488"/>
      <point x="-246" y="514"/>
      <point x="-300" y="514" type="curve" smooth="yes"/>
      <point x="-354" y="514"/>
      <point x="-374" y="488"/>
      <point x="-374" y="454" type="curve" smooth="yes"/>
      <point x="-374" y="436" type="line" smooth="yes"/>
      <point x="-374" y="402"/>
      <point x="-354" y="376"/>
    </contour>
  </outline>
</glyph>
<glyph name="equal_equal.liga" format="1">
  <advance width="600"/>
  <outline>
    <contour>
      <point x="538" y="372" type="line" name="hr00"/>
      <point x="538" y="440" type="line"/>
      <point x="-538" y="440" type="line"/>
      <point x="-538" y="372" type="line"/>
    </contour>
    <contour>
      <point x="538" y="172" type="line"/>
      <point x="538" y="240" type="line"/>
      <point x="-538" y="240" type="line"/>
      <point x="-538" y="172" type="line"/>
    </contour>
  </outline>
</glyph>
<glyph name="equal_equal_equal.liga" format="1">
  <advance width="1800"/>
  <outline>
    <contour>
      <point x="1738" y="472" type="line" name="hr00"/>
      <point x="1738" y="540" type="line"/>
      <point x="62" y="540" type="line"/>
      <point x="62" y="472" type="line"/>
    </contour>
    <contour>
      <point x="1738" y="272" type="line"/>
      <point x="1738" y="340" type="line"/>
      <point x="62" y="340" type="line"/>
      <point x="62" y="272" type="line"/>
    </contour>
    <contour>
      <point x="1738" y="72" type="line"/>
      <point x="1738" y="140" type="line"/>
      <point x="62" y="140" type="line"/>
      <point x="62" y="72" type="line"/>
    </contour>
  </outline>
</glyph>
<glyph name="equal_equal_greater.liga" format="1">
  <advance width="600"/>
  <outline>
    <contour>
      <point x="334" y="378" type="line" name="hr00"/>
      <point x="334" y="434" type="line"/>
      <point x="238" y="440" type="line"/>
      <point x="-1081" y="440" type="line"/>
      <point x="-1081" y="372" type="line"/>
      <point x="238" y="372" type="line"/>
    </contour>
    <contour>
      <point x="334" y="178" type="line"/>
      <point x="334" y="234" type="line"/>
      <point x="238" y="240" type="line"/>
      <point x="-1081" y="240" type="line"/>
      <point x="-1081" y="172" type="line"/>
      <point x="238" y="172" type="line"/>
    </contour>
    <component base="_arrowhead.right"/>
  </outline>
</glyph>
<glyph name="equal_exclam_equal.liga" format="1">
  <advance width="600"/>
  <outline>
    <contour>
      <point x="-465" y="372" type="line" name="hr00"/>
      <point x="-465" y="440" type="line"/>
      <point x="-1138" y="440" type="line"/>
      <point x="-1138" y="372" type="line"/>
    </contour>
    <contour>
      <point x="-465" y="172" type="line"/>
      <point x="-465" y="240" type="line"/>
      <point x="-1138" y="240" type="line"/>
      <point x="-1138" y="172" type="line"/>
    </contour>
    <contour>
      <point x="538" y="372" type="line" name="hr00"/>
      <point x="538" y="440" type="line"/>
      <point x="-135" y="440" type="line"/>
      <point x="-135" y="372" type="line"/>
    </contour>
    <contour>
      <point x="538" y="172" type="line"/>
      <point x="538" y="240" type="line"/>
      <point x="-135" y="240" type="line"/>
      <point x="-135" y="172" type="line"/>
    </contour>
    <component base="exclam" xOffset="-600"/>
  </outline>
</glyph>
<glyph name="equal_greater.liga" format="1">
  <advance width="1200"/>
  <outline>
    <contour>
      <point x="934" y="378" type="line" name="hr00"/>
      <point x="934" y="434" type="line"/>
      <point x="838" y="440" type="line"/>
      <point x="119" y="440" type="line"/>
      <point x="119" y="372" type="line"/>
      <point x="838" y="372" type="line"/>
    </contour>
    <contour>
      <point x="934" y="178" type="line"/>
      <point x="934" y="234" type="line"/>
      <point x="838" y="240" type="line"/>
      <point x="119" y="240" type="line"/>
      <point x="119" y="172" type="line"/>
      <point x="838" y="172" type="line"/>
    </contour>
    <component base="_arrowhead.right" xOffset="600"/>
  </outline>
</glyph>
<glyph name="equal_greater_greater.liga" format="1">
  <advance width="600"/>
  <outline>
    <contour>
      <point x="51" y="378" type="line" name="hr00"/>
      <point x="51" y="434" type="line"/>
      <point x="-45" y="440" type="line"/>
      <point x="-1081" y="440" type="line"/>
      <point x="-1081" y="372" type="line"/>
      <point x="-45" y="372" type="line"/>
    </contour>
    <contour>
      <point x="51" y="178" type="line"/>
      <point x="51" y="234" type="line"/>
      <point x="-45" y="240" type="line"/>
      <point x="-1081" y="240" type="line"/>
      <point x="-1081" y="172" type="line"/>
      <point x="-45" y="172" type="line"/>
    </contour>
    <component base="_arrowhead.right"/>
    <component base="_arrowhead.right" xOffset="-283"/>
  </outline>
</glyph>
<glyph name="equal_less_less.liga" format="1">
  <advance width="600"/>
  <outline>
    <contour>
      <point x="6" y="172" type="line"/>
      <point x="170" y="8" type="line"/>
      <point x="218" y="56" type="line"/>
      <point x="33" y="240" type="line"/>
      <point x="-1081" y="240" type="line"/>
      <point x="-1081" y="172" type="line"/>
    </contour>
    <contour>
      <point x="6" y="440" type="line"/>
      <point x="-1081" y="440" type="line"/>
      <point x="-1081" y="372" type="line" name="hr00"/>
      <point x="33" y="372" type="line"/>
      <point x="218" y="556" type="line"/>
      <point x="170" y="604" type="line"/>
    </contour>
    <component base="_arrowhead.left" xOffset="56"/>
  </outline>
</glyph>
<glyph name="exclam_equal.liga" format="1">
  <advance width="600"/>
  <outline>
    <contour>
      <point x="-112" y="-3" type="line" name="hr00"/>
      <point x="184" y="615" type="line"/>
      <point x="112" y="615" type="line"/>
      <point x="-184" y="-3" type="line"/>
    </contour>
    <component base="equal_equal.liga"/>
  </outline>
</glyph>
<glyph name="exclam_equal_equal.liga" format="1">
  <advance width="600"/>
  <outline>
    <contour>
      <point x="-438" y="-103" type="line" name="hr00"/>
      <point x="-90" y="715" type="line"/>
      <point x="-162" y="715" type="line"/>
      <point x="-510" y="-103" type="line"/>
    </contour>
    <component base="equal_equal_equal.liga"/>
  </outline>
</glyph>
<glyph name="greater_equal.liga" format="1">
  <advance width="1200"/>
  <outline>
    <contour>
      <point x="385" y="139" type="line" name="hr00"/>
      <point x="815" y="331" type="line"/>
      <point x="815" y="420" type="line"/>
      <point x="385" y="611" type="line"/>
      <point x="385" y="529" type="line"/>
      <point x="740" y="378" type="line"/>
      <point x="740" y="371" type="line"/>
      <point x="385" y="219" type="line"/>
    </contour>
    <contour>
      <point x="385" y="-61" type="line" name="hr00"/>
      <point x="815" y="131" type="line"/>
      <point x="815" y="211" type="line"/>
      <point x="385" y="19" type="line" name="hr00"/>
    </contour>
  </outline>
</glyph>
<glyph name="greater_equal_greater.liga" format="1">
  <advance width="600"/>
  <outline>
    <contour>
      <point x="-889" y="172" type="line"/>
      <point x="218" y="172" type="line"/>
      <point x="314" y="178" type="line"/>
      <point x="314" y="234" type="line"/>
      <point x="218" y="240" type="line"/>
      <point x="-916" y="240" type="line"/>
      <point x="-1101" y="56" type="line"/>
      <point x="-1053" y="8" type="line"/>
    </contour>
    <contour>
      <point x="-889" y="440" type="line"/>
      <point x="-1053" y="604" type="line"/>
      <point x="-1101" y="556" type="line"/>
      <point x="-916" y="372" type="line"/>
      <point x="218" y="372" type="line"/>
      <point x="314" y="378" type="line" name="hr00"/>
      <point x="314" y="434" type="line"/>
      <point x="218" y="440" type="line"/>
    </contour>
    <component base="_arrowhead.right" xOffset="-20"/>
  </outline>
</glyph>
<glyph name="greater_greater_equal.liga" format="1">
  <advance width="600"/>
  <outline>
    <contour>
      <point x="-606" y="172" type="line"/>
      <point x="481" y="172" type="line"/>
      <point x="481" y="240" type="line"/>
      <point x="-633" y="240" type="line"/>
      <point x="-818" y="56" type="line"/>
      <point x="-770" y="8" type="line"/>
    </contour>
    <contour>
      <point x="-606" y="440" type="line"/>
      <point x="-770" y="604" type="line"/>
      <point x="-818" y="556" type="line"/>
      <point x="-633" y="372" type="line"/>
      <point x="481" y="372" type="line" name="hr00"/>
      <point x="481" y="440" type="line"/>
    </contour>
    <component base="_arrowhead.right" xOffset="-1256"/>
  </outline>
</glyph>
<glyph name="greater_greater_hyphen.liga" format="1">
  <advance width="600"/>
  <outline>
    <contour>
      <point x="481" y="272" type="line"/>
      <point x="481" y="340" type="line"/>
      <point x="-556" y="340" type="line"/>
      <point x="-556" y="272" type="line"/>
    </contour>
    <component base="_arrowhead.right" xOffset="-973"/>
    <component base="_arrowhead.right" xOffset="-1256"/>
  </outline>
</glyph>
<glyph name="greater_hyphen.liga" format="1">
  <advance width="600"/>
  <outline>
    <contour>
      <point x="481" y="272" type="line"/>
      <point x="481" y="340" type="line"/>
      <point x="-229" y="340" type="line"/>
      <point x="-229" y="272" type="line"/>
    </contour>
    <component base="_arrowhead.right" xOffset="-656"/>
  </outline>
</glyph>
<glyph name="hyphen_greater.liga" format="1">
  <advance width="600"/>
  <outline>
    <contour>
      <point x="379" y="278" type="line"/>
      <point x="382" y="274" type="line"/>
      <point x="420" y="306" type="line"/>
      <point x="382" y="338" type="line"/>
      <point x="379" y="334" type="line"/>
      <point x="283" y="340" type="line"/>
      <point x="-481" y="340" type="line"/>
      <point x="-481" y="272" type="line"/>
      <point x="283" y="272" type="line"/>
    </contour>
    <component base="_arrowhead.right"/>
  </outline>
</glyph>
<glyph name="hyphen_hyphen_greater.liga" format="1">
  <advance width="600"/>
  <outline>
    <contour>
      <point x="440" y="262" type="line" name="hr00"/>
      <point x="440" y="346" type="line"/>
      <point x="-1045" y="346" type="line"/>
      <point x="-1045" y="262" type="line"/>
    </contour>
    <component base="greater"/>
  </outline>
</glyph>
<glyph name="hyphen_less.liga" format="1">
  <advance width="600"/>
  <outline>
    <contour>
      <point x="-481" y="272" type="line"/>
      <point x="239" y="272" type="line"/>
      <point x="239" y="340" type="line"/>
      <point x="-481" y="340" type="line"/>
    </contour>
    <component base="_arrowhead.left" xOffset="56"/>
  </outline>
</glyph>
<glyph name="hyphen_less_less.liga" format="1">
  <advance width="600"/>
  <outline>
    <contour>
      <point x="-1081" y="272" type="line"/>
      <point x="-44" y="272" type="line"/>
      <point x="-44" y="340" type="line"/>
      <point x="-1081" y="340" type="line"/>
    </contour>
    <component base="_arrowhead.left" xOffset="-227"/>
    <component base="_arrowhead.left" xOffset="56"/>
  </outline>
</glyph>
<glyph name="less_equal.liga" format="1">
  <advance width="600"/>
  <outline>
    <contour>
      <point x="274" y="139" type="line" name="hr00"/>
      <point x="274" y="219" type="line"/>
      <point x="-199" y="424" type="line"/>
      <point x="-199" y="431" type="line"/>
      <point x="274" y="632" type="line"/>
      <point x="274" y="714" type="line"/>
      <point x="-274" y="473" type="line"/>
      <point x="-274" y="384" type="line"/>
    </contour>
    <contour>
      <point x="274" y="-61" type="line" name="hr00"/>
      <point x="274" y="19" type="line" name="hr00"/>
      <point x="-274" y="264" type="line"/>
      <point x="-274" y="184" type="line"/>
    </contour>
  </outline>
</glyph>
<glyph name="less_equal_equal.liga" format="1">
  <advance width="1800"/>
  <outline>
    <contour>
      <point x="266" y="378" type="line" name="hr00"/>
      <point x="362" y="372" type="line"/>
      <point x="1681" y="372" type="line"/>
      <point x="1681" y="440" type="line"/>
      <point x="362" y="440" type="line"/>
      <point x="266" y="434" type="line"/>
    </contour>
    <contour>
      <point x="266" y="178" type="line"/>
      <point x="362" y="172" type="line"/>
      <point x="1681" y="172" type="line"/>
      <point x="1681" y="240" type="line"/>
      <point x="362" y="240" type="line"/>
      <point x="266" y="234" type="line"/>
    </contour>
    <component base="_arrowhead.left"/>
  </outline>
</glyph>
<glyph name="less_equal_equal_greater.liga" format="1">
  <advance width="600"/>
  <outline>
    <contour>
      <point x="-1438" y="172" type="line"/>
      <point x="238" y="172" type="line"/>
      <point x="334" y="178" type="line" name="hr00"/>
      <point x="334" y="234" type="line"/>
      <point x="238" y="240" type="line"/>
      <point x="-1438" y="240" type="line"/>
      <point x="-1534" y="234" type="line"/>
      <point x="-1534" y="178" type="line" name="hr00"/>
    </contour>
    <contour>
      <point x="-1438" y="372" type="line"/>
      <point x="238" y="372" type="line"/>
      <point x="334" y="378" type="line" name="hr00"/>
      <point x="334" y="434" type="line"/>
      <point x="238" y="440" type="line"/>
      <point x="-1438" y="440" type="line"/>
      <point x="-1534" y="434" type="line"/>
      <point x="-1534" y="378" type="line" name="hr00"/>
    </contour>
    <component base="_arrowhead.right"/>
    <component base="_arrowhead.left" xOffset="-1800"/>
  </outline>
</glyph>
<glyph name="less_equal_greater.liga" format="1">
  <advance width="600"/>
  <outline>
    <contour>
      <point x="-838" y="172" type="line"/>
      <point x="238" y="172" type="line"/>
      <point x="334" y="178" type="line" name="hr00"/>
      <point x="334" y="234" type="line"/>
      <point x="238" y="240" type="line"/>
      <point x="-838" y="240" type="line"/>
      <point x="-934" y="234" type="line"/>
      <point x="-934" y="178" type="line" name="hr00"/>
    </contour>
    <contour>
      <point x="-838" y="372" type="line"/>
      <point x="238" y="372" type="line"/>
      <point x="334" y="378" type="line" name="hr00"/>
      <point x="334" y="434" type="line"/>
      <point x="238" y="440" type="line"/>
      <point x="-838" y="440" type="line"/>
      <point x="-934" y="434" type="line"/>
      <point x="-934" y="378" type="line" name="hr00"/>
    </contour>
    <component base="_arrowhead.right"/>
    <component base="_arrowhead.left" xOffset="-1200"/>
  </outline>
</glyph>
<glyph name="less_equal_less.liga" format="1">
  <advance width="600"/>
  <outline>
    <contour>
      <point x="270" y="172" type="line"/>
      <point x="434" y="8" type="line"/>
      <point x="482" y="56" type="line"/>
      <point x="297" y="240" type="line"/>
      <point x="-838" y="240" type="line"/>
      <point x="-934" y="234" type="line"/>
      <point x="-934" y="178" type="line"/>
      <point x="-838" y="172" type="line"/>
    </contour>
    <contour>
      <point x="270" y="440" type="line"/>
      <point x="-838" y="440" type="line"/>
      <point x="-934" y="434" type="line"/>
      <point x="-934" y="378" type="line" name="hr00"/>
      <point x="-838" y="372" type="line"/>
      <point x="297" y="372" type="line"/>
      <point x="482" y="556" type="line"/>
      <point x="434" y="604" type="line"/>
    </contour>
    <component base="_arrowhead.left" xOffset="-1200"/>
  </outline>
</glyph>
<glyph name="less_hyphen.liga" format="1">
  <advance width="600"/>
  <outline>
    <contour>
      <point x="-379" y="278" type="line"/>
      <point x="-283" y="272" type="line"/>
      <point x="481" y="272" type="line"/>
      <point x="481" y="340" type="line"/>
      <point x="-283" y="340" type="line"/>
      <point x="-379" y="334" type="line"/>
      <point x="-382" y="338" type="line"/>
      <point x="-420" y="306" type="line"/>
      <point x="-382" y="274" type="line"/>
    </contour>
    <component base="_arrowhead.left" xOffset="-600"/>
  </outline>
</glyph>
<glyph name="less_less.liga" format="1">
  <advance width="1200"/>
  <outline>
    <contour>
      <point x="565" y="16" type="line" name="hr00"/>
      <point x="565" y="101" type="line"/>
      <point x="210" y="302" type="line"/>
      <point x="210" y="310" type="line"/>
      <point x="565" y="511" type="line"/>
      <point x="565" y="594" type="line"/>
      <point x="135" y="345" type="line"/>
      <point x="135" y="265" type="line"/>
    </contour>
    <contour>
      <point x="1065" y="16" type="line" name="hr00"/>
      <point x="1065" y="101" type="line"/>
      <point x="710" y="302" type="line"/>
      <point x="710" y="310" type="line"/>
      <point x="1065" y="511" type="line"/>
      <point x="1065" y="594" type="line"/>
      <point x="635" y="345" type="line"/>
      <point x="635" y="265" type="line"/>
    </contour>
  </outline>
</glyph>
<glyph name="less_less_equal.liga" format="1">
  <advance width="1800"/>
  <outline>
    <contour>
      <point x="549" y="378" type="line" name="hr00"/>
      <point x="645" y="372" type="line"/>
      <point x="1681" y="372" type="line"/>
      <point x="1681" y="440" type="line"/>
      <point x="645" y="440" type="line"/>
      <point x="549" y="434" type="line"/>
    </contour>
    <contour>
      <point x="549" y="178" type="line"/>
      <point x="645" y="172" type="line"/>
      <point x="1681" y="172" type="line"/>
      <point x="1681" y="240" type="line"/>
      <point x="645" y="240" type="line"/>
      <point x="549" y="234" type="line"/>
    </contour>
    <component base="_arrowhead.left" xOffset="283"/>
    <component base="_arrowhead.left"/>
  </outline>
</glyph>
<glyph name="less_slash.liga" format="1">
  <advance width="1200"/>
  <outline>
    <contour>
      <point x="653" y="-54" type="line" name="hr00"/>
      <point x="673" y="12" type="line"/>
      <point x="160" y="302" type="line"/>
      <point x="160" y="310" type="line"/>
      <point x="515" y="511" type="line"/>
      <point x="515" y="594" type="line"/>
      <point x="85" y="345" type="line"/>
      <point x="85" y="265" type="line"/>
    </contour>
    <component base="slash" xOffset="500"/>
  </outline>
</glyph>
<glyph name="less_slash_greater.liga" format="1">
  <advance width="600"/>
  <outline>
    <contour>
      <point x="-175" y="676" type="line" name="hr00"/>
      <point x="-204" y="616" type="line"/>
      <point x="340" y="308" type="line"/>
      <point x="340" y="300" type="line"/>
      <point x="-15" y="99" type="line"/>
      <point x="-15" y="16" type="line"/>
      <point x="415" y="265" type="line"/>
      <point x="415" y="345" type="line"/>
    </contour>
    <contour>
      <point x="-447" y="-54" type="line" name="hr00"/>
      <point x="-427" y="12" type="line"/>
      <point x="-940" y="302" type="line"/>
      <point x="-940" y="310" type="line"/>
      <point x="-585" y="511" type="line"/>
      <point x="-585" y="594" type="line"/>
      <point x="-1015" y="345" type="line"/>
      <point x="-1015" y="265" type="line"/>
    </contour>
    <component base="slash" xOffset="-600"/>
  </outline>
</glyph>
<glyph name="numbersign_numbersign.liga" format="1">
  <advance width="600"/>
  <outline>
    <contour>
      <point x="-16" y="482" type="line"/>
      <point x="-16" y="416" type="line"/>
      <point x="52" y="416" type="line"/>
      <point x="52" y="482" type="line"/>
    </contour>
    <contour>
      <point x="-52" y="282" type="line"/>
      <point x="-52" y="216" type="line"/>
      <point x="16" y="216" type="line"/>
      <point x="16" y="282" type="line"/>
    </contour>
    <component base="numbersign"/>
    <component base="numbersign" xOffset="-600"/>
  </outline>
</glyph>
<glyph name="numbersign_numbersign_numbersign.liga" format="1">
  <advance width="600"/>
  <outline>
    <contour>
      <point x="-616" y="482" type="line"/>
      <point x="-616" y="416" type="line"/>
      <point x="-548" y="416" type="line"/>
      <point x="-548" y="482" type="line"/>
    </contour>
    <contour>
      <point x="-652" y="282" type="line"/>
      <point x="-652" y="216" type="line"/>
      <point x="-584" y="216" type="line"/>
      <point x="-584" y="282" type="line"/>
    </contour>
    <contour>
      <point x="-16" y="482" type="line"/>
      <point x="-16" y="416" type="line"/>
      <point x="52" y="416" type="line"/>
      <point x="52" y="482" type="line"/>
    </contour>
    <contour>
      <point x="-52" y="282" type="line"/>
      <point x="-52" y="216" type="line"/>
      <point x="16" y="216" type="line"/>
      <point x="16" y="282" type="line"/>
    </contour>
    <component base="numbersign" xOffset="-600"/>
    <component base="numbersign"/>
    <component base="numbersign" xOffset="-1200"/>
  </outline>
</glyph>
<glyph name="numbersign_numbersign_numbersign_numbersign.liga" format="1">
  <advance width="2400"/>
  <outline>
    <contour>
      <point x="584" y="482" type="line"/>
      <point x="584" y="416" type="line"/>
      <point x="652" y="416" type="line"/>
      <point x="652" y="482" type="line"/>
    </contour>
    <contour>
      <point x="548" y="282" type="line"/>
      <point x="548" y="216" type="line"/>
      <point x="616" y="216" type="line"/>
      <point x="616" y="282" type="line"/>
    </contour>
    <contour>
      <point x="1184" y="482" type="line"/>
      <point x="1184" y="416" type="line"/>
      <point x="1252" y="416" type="line"/>
      <point x="1252" y="482" type="line"/>
    </contour>
    <contour>
      <point x="1148" y="282" type="line"/>
      <point x="1148" y="216" type="line"/>
      <point x="1216" y="216" type="line"/>
      <point x="1216" y="282" type="line"/>
    </contour>
    <contour>
      <point x="1784" y="482" type="line"/>
      <point x="1784" y="416" type="line"/>
      <point x="1852" y="416" type="line"/>
      <point x="1852" y="482" type="line"/>
    </contour>
    <contour>
      <point x="1748" y="282" type="line"/>
      <point x="1748" y="216" type="line"/>
      <point x="1816" y="216" type="line"/>
      <point x="1816" y="282" type="line"/>
    </contour>
    <component base="numbersign" xOffset="600"/>
    <component base="numbersign" xOffset="1200"/>
    <component base="numbersign" xOffset="1800"/>
    <component base="numbersign"/>
  </outline>
</glyph>
<glyph name="slash_equal.liga" format="1">
  <advance width="600"/>
  <outline>
    <contour>
      <point x="-466" y="-3" type="line" name="hr00"/>
      <point x="-170" y="615" type="line"/>
      <point x="-242" y="615" type="line"/>
      <point x="-538" y="-3" type="line"/>
    </contour>
    <component base="equal_equal.liga"/>
  </outline>
</glyph>
<glyph name="slash_greater.liga" format="1">
  <advance width="1200"/>
  <outline>
    <contour>
      <point x="525" y="676" type="line" name="hr00"/>
      <point x="496" y="616" type="line"/>
      <point x="1040" y="308" type="line"/>
      <point x="1040" y="300" type="line"/>
      <point x="685" y="99" type="line"/>
      <point x="685" y="16" type="line"/>
      <point x="1115" y="265" type="line"/>
      <point x="1115" y="345" type="line"/>
    </contour>
    <component base="slash" xOffset="100"/>
  </outline>
</glyph>
<glyph name="underscore_underscore.liga" format="1">
  <advance width="600"/>
  <outline>
    <contour>
      <point x="540" y="-169" type="line" name="hr00"/>
      <point x="540" y="-95" type="line"/>
      <point x="-540" y="-95" type="line"/>
      <point x="-540" y="-169" type="line"/>
    </contour>
  </outline>
</glyph>
